<?xml version="1.0" standalone="no"?>
<!DOCTYPE svg PUBLIC "-//W3C//DTD SVG 20010904//EN"
 "http://www.w3.org/TR/2001/REC-SVG-20010904/DTD/svg10.dtd">
<svg version="1.0" xmlns="http://www.w3.org/2000/svg"
 width="619.000000pt" height="323.000000pt" viewBox="0 0 619.000000 323.000000"
 preserveAspectRatio="xMidYMid meet">

<g transform="translate(0.000000,323.000000) scale(0.100000,-0.100000)"
fill="#000000" stroke="none">
<path d="M0 1615 l0 -1615 225 0 225 0 0 1615 0 1615 -225 0 -225 0 0 -1615z"/>
<path d="M5740 1615 l0 -1615 225 0 225 0 0 1615 0 1615 -225 0 -225 0 0
-1615z"/>
<path d="M697 3041 c23 -4 51 -16 63 -26 20 -18 20 -27 20 -636 l0 -618 -22
-20 c-11 -11 -40 -25 -62 -30 -59 -13 889 -14 1012 -1 179 20 293 76 364 180
90 131 72 353 -36 448 -33 28 -53 40 -129 71 -28 11 -29 31 -1 31 22 0 89 45
113 76 46 58 61 111 60 208 0 78 -4 99 -27 146 -49 99 -140 149 -312 170 -93
11 -1112 12 -1043 1z m868 -257 c47 -24 75 -72 75 -130 0 -54 -33 -103 -90
-131 -40 -21 -59 -23 -192 -23 l-148 0 0 156 0 156 158 -4 c134 -3 163 -7 197
-24z m5 -506 c19 -8 46 -28 60 -43 22 -24 25 -35 25 -105 0 -70 -3 -81 -25
-106 -49 -52 -99 -66 -266 -72 l-153 -5 -3 172 c-2 95 -1 175 2 178 3 3 77 3
165 1 115 -3 170 -9 195 -20z"/>
<path d="M2169 3043 c68 -9 35 35 513 -673 l78 -115 0 -252 0 -253 -25 -16
c-14 -9 -40 -20 -58 -24 -17 -5 130 -8 328 -8 289 0 352 2 318 11 -86 24 -83
15 -83 291 0 240 0 245 23 273 20 25 247 359 272 400 6 9 32 49 58 87 27 39
73 107 102 152 64 95 83 114 127 124 18 4 -109 8 -282 7 -173 0 -303 -2 -287
-4 50 -8 32 -75 -55 -204 -21 -31 -38 -59 -38 -63 0 -6 -70 -107 -80 -116 -4
-3 -21 -31 -40 -64 -29 -51 -34 -56 -43 -40 -6 11 -56 89 -112 174 -129 197
-142 218 -149 255 -7 37 1 52 34 58 14 2 -123 4 -305 4 -181 0 -315 -2 -296
-4z"/>
<path d="M3942 3043 c53 -8 53 -3 59 -472 7 -452 8 -468 53 -575 25 -61 106
-153 171 -196 126 -82 229 -109 445 -117 227 -8 383 24 514 107 122 77 205
209 231 366 11 67 15 185 15 470 0 424 -4 398 71 413 28 6 -80 9 -296 9 -187
0 -323 -4 -303 -8 21 -4 47 -15 58 -25 19 -18 20 -31 20 -421 0 -351 -2 -409
-17 -446 -24 -63 -58 -104 -111 -135 -41 -25 -57 -28 -132 -28 -103 0 -146 14
-197 64 -80 77 -78 64 -78 533 0 467 -4 444 72 458 21 4 -106 8 -282 7 -176 0
-308 -2 -293 -4z"/>
<path d="M3020 1390 l-2375 -5 2378 -3 c1579 -1 2377 1 2377 8 0 6 -1 9 -2 8
-2 -2 -1072 -5 -2378 -8z"/>
<path d="M2747 1073 c-3 -4 -24 -60 -47 -123 -152 -421 -187 -513 -241 -626
-29 -61 -46 -74 -104 -87 -11 -3 39 -5 110 -5 72 0 121 3 110 5 -61 15 -60 69
7 256 l21 57 139 0 138 0 10 -25 c5 -14 18 -44 29 -68 19 -43 61 -171 61 -189
0 -5 -15 -15 -32 -23 -30 -13 -22 -14 107 -14 137 0 139 1 94 15 -43 13 -49
19 -78 76 -39 79 -121 275 -121 291 -1 7 -9 30 -20 52 -11 22 -19 44 -20 48 0
5 -6 23 -14 40 -8 18 -26 66 -41 107 -15 41 -31 84 -36 95 -4 11 -17 42 -26
69 -17 47 -35 66 -46 49z m72 -343 c23 -58 41 -113 41 -122 0 -16 -12 -18
-113 -18 -63 0 -116 3 -119 6 -3 3 0 22 8 42 7 20 29 80 48 132 19 52 40 109
46 125 l11 30 19 -45 c10 -25 37 -92 59 -150z"/>
<path d="M4965 1073 c-91 -14 -163 -52 -234 -122 -165 -161 -174 -427 -22
-593 223 -243 641 -146 737 171 19 63 18 200 -2 269 -35 119 -119 206 -249
257 -41 17 -176 27 -230 18z m143 -41 c78 -30 139 -78 182 -144 62 -97 73
-139 68 -286 -4 -148 -19 -186 -99 -264 -62 -60 -131 -83 -230 -76 -151 11
-263 115 -314 292 -24 81 -17 219 15 300 57 149 235 232 378 178z"/>
<path d="M705 1059 c59 -10 72 -24 80 -93 12 -94 1 -669 -12 -693 -9 -15 -28
-24 -65 -31 -43 -8 -20 -10 122 -10 96 0 159 3 140 7 -54 11 -77 27 -83 59 -3
16 -9 137 -12 268 -7 258 4 447 27 471 8 7 34 17 59 22 32 6 -4 9 -131 9 -127
0 -161 -3 -125 -9z"/>
<path d="M1359 1059 c25 -5 49 -13 55 -19 28 -28 31 -702 3 -760 -9 -18 -25
-28 -57 -37 -38 -10 -10 -12 185 -12 253 -1 316 9 408 62 140 82 220 255 197
427 -15 115 -70 205 -164 268 -108 73 -155 82 -431 81 -166 -1 -226 -4 -196
-10z m432 -39 c84 -26 147 -74 197 -149 51 -77 72 -148 72 -244 0 -118 -29
-196 -98 -267 -45 -46 -69 -62 -112 -75 -79 -23 -206 -30 -255 -13 -35 11 -42
19 -58 63 -15 44 -17 85 -14 350 2 165 7 308 11 318 5 10 18 23 30 27 40 16
161 11 227 -10z"/>
<path d="M3433 1060 c74 -14 72 -1 75 -383 2 -188 0 -357 -3 -374 -6 -34 -27
-51 -80 -64 -16 -4 42 -7 130 -7 88 0 147 3 130 7 -81 20 -85 31 -85 254 l0
147 256 0 257 0 -7 -172 c-8 -198 -13 -212 -78 -226 -33 -8 -6 -10 122 -10
122 0 154 2 125 9 -77 18 -75 6 -75 413 1 287 3 365 14 379 8 10 33 22 57 26
32 6 -2 9 -121 9 -122 0 -153 -2 -120 -9 25 -5 50 -15 56 -24 11 -15 28 -330
18 -346 -3 -5 -115 -9 -255 -9 l-251 0 4 170 c3 191 5 195 79 209 32 6 0 9
-121 9 -99 0 -150 -3 -127 -8z"/>
</g>
</svg>
